<?xml version="1.0" encoding="UTF-8"?>
<svg version="1.1" xmlns="http://www.w3.org/2000/svg" width="192" height="192">
<path d="M0 0 C63.36 0 126.72 0 192 0 C192 63.36 192 126.72 192 192 C128.64 192 65.28 192 0 192 C0 128.64 0 65.28 0 0 Z " fill="#0155E3" transform="translate(0,0)"/>
<path d="M0 0 C7.36273052 -0.06955197 14.72539005 -0.12283745 22.08838272 -0.15543652 C25.50744492 -0.17108358 28.92628213 -0.1923037 32.34521484 -0.22631836 C36.27699071 -0.26518985 40.2086759 -0.27971721 44.140625 -0.29296875 C45.97986542 -0.31619453 45.97986542 -0.31619453 47.85626221 -0.33988953 C48.99714294 -0.34011612 50.13802368 -0.34034271 51.31347656 -0.34057617 C52.31719299 -0.34723801 53.32090942 -0.35389984 54.3550415 -0.36076355 C57.50962194 0.06951074 58.85145483 0.64624172 61 3 C61.48101807 5.56266785 61.48101807 5.56266785 61.45410156 8.66479492 C61.45379944 9.82577194 61.45349731 10.98674896 61.45318604 12.1829071 C61.43254089 13.43610245 61.41189575 14.68929779 61.390625 15.98046875 C61.38496521 17.26359451 61.37930542 18.54672028 61.37347412 19.86872864 C61.35821488 23.27700045 61.31893221 26.68458839 61.2746582 30.09259033 C61.23371078 33.5713984 61.21546434 37.05031718 61.1953125 40.52929688 C61.15243703 47.35314518 61.0841831 54.17653975 61 61 C52.75713589 61.1126369 46.99365327 58.83166264 41 53 C34.47220187 44.54899788 34.84749727 36.31935153 35 26 C33.96101563 26.05800781 32.92203125 26.11601563 31.8515625 26.17578125 C23.31417786 26.51301256 16.00001806 26.59485789 9 21 C6.32783965 18.19298296 4.06414593 15.27800448 2 12 C1.608125 11.41347656 1.21625 10.82695313 0.8125 10.22265625 C-0.42799624 6.82918337 -0.04739092 3.60330449 0 0 Z " fill="#F2F4FB" transform="translate(31,100)"/>
<path d="M0 0 C7.51037714 -0.06949335 15.02072096 -0.12280778 22.53134632 -0.15543652 C26.01881576 -0.17109635 29.50606532 -0.1923398 32.9934082 -0.22631836 C37.00213743 -0.2651328 41.01063548 -0.2797065 45.01953125 -0.29296875 C46.27272659 -0.30845261 47.52592194 -0.32393646 48.8170929 -0.33988953 C50.55855843 -0.34022942 50.55855843 -0.34022942 52.33520508 -0.34057617 C53.35890701 -0.34723801 54.38260895 -0.35389984 55.43733215 -0.36076355 C58 0 58 0 59.83276367 1.16723633 C61.47273415 3.74227468 61.36037839 5.62185429 61.34057617 8.66479492 C61.34023628 10.40626045 61.34023628 10.40626045 61.33988953 12.1829071 C61.32440567 13.43610245 61.30892181 14.68929779 61.29296875 15.98046875 C61.28872391 17.26359451 61.28447906 18.54672028 61.28010559 19.86872864 C61.26866162 23.27686138 61.23919896 26.6846094 61.20599365 30.09259033 C61.17528272 33.57143957 61.16159811 37.05035109 61.14648438 40.52929688 C61.11432835 47.35302243 61.06313776 54.17649274 61 61 C54.07986959 61.12323105 50.69886314 59.69888476 45 56 C43.63875 55.13375 43.63875 55.13375 42.25 54.25 C36.65462387 48.65462387 34.74892104 43.8184121 34.65942383 35.93798828 C34.70042819 32.28610423 34.82291487 28.64795368 35 25 C33.49759766 25.03480469 33.49759766 25.03480469 31.96484375 25.0703125 C30.62240336 25.08908789 29.27995482 25.10728618 27.9375 25.125 C25.97103516 25.15980469 25.97103516 25.15980469 23.96484375 25.1953125 C17.30361946 24.86717337 12.19369357 23.1991565 7 19 C1.47391668 12.60885224 -0.13740572 8.38174906 0 0 Z " fill="#FCFDFD" transform="translate(88,43)"/>
<path d="M0 0 C7.65807215 -0.04629168 15.31612984 -0.08185303 22.97430992 -0.10362434 C26.53012399 -0.11407224 30.0858425 -0.12824959 33.64160156 -0.15087891 C37.727223 -0.17671832 41.81274369 -0.18646444 45.8984375 -0.1953125 C47.17866791 -0.20563507 48.45889832 -0.21595764 49.77792358 -0.22659302 C50.95899689 -0.22674408 52.14007019 -0.22689514 53.35693359 -0.22705078 C54.92246475 -0.23371262 54.92246475 -0.23371262 56.5196228 -0.24050903 C59 0 59 0 61 2 C61.24050903 4.44241333 61.24050903 4.44241333 61.22705078 7.55126953 C61.22689972 8.71232208 61.22674866 9.87337463 61.22659302 11.0696106 C61.21627045 12.32796722 61.20594788 13.58632385 61.1953125 14.8828125 C61.1924826 16.16735321 61.18965271 17.45189392 61.18673706 18.77536011 C61.17909809 22.19162767 61.15944752 25.60772537 61.1373291 29.02392578 C61.11687624 32.50941673 61.10773655 35.9949351 61.09765625 39.48046875 C61.07620175 46.32038231 61.04206271 53.160183 61 60 C53.08450112 60.10878171 49.07551141 58.95591401 43.26953125 53.3203125 C37.54895618 46.96411797 35.53262676 41.59295948 35.8125 33.125 C35.83280273 31.949375 35.83280273 31.949375 35.85351562 30.75 C35.88858211 28.83303218 35.94237928 26.91642249 36 25 C34.38931641 25.03480469 34.38931641 25.03480469 32.74609375 25.0703125 C31.30990285 25.08908624 29.87370435 25.1072847 28.4375 25.125 C27.73302734 25.14175781 27.02855469 25.15851563 26.30273438 25.17578125 C21.48108178 25.22022044 17.57702562 24.52768004 13 23 C13 22.34 13 21.68 13 21 C12.443125 20.95875 11.88625 20.9175 11.3125 20.875 C6.2923076 18.97546774 3.87164808 14.0604848 1.6875 9.4375 C0.18470229 6.10520942 -0.06733584 3.63575915 0 0 Z " fill="#EBF1FA" transform="translate(59,72)"/>
<path d="M0 0 C2.52588702 2.36292656 3.88820837 3.66462511 5 7 C6.95197603 8.57221907 6.95197603 8.57221907 9.3125 10 C12.32584589 11.91260301 15.13260099 13.84945074 18 16 C13.05 16 8.1 16 3 16 C3.20625 18.413125 3.4125 20.82625 3.625 23.3125 C4.07561349 29.37294286 3.87192295 34.72705581 2.375 40.66796875 C1.78787211 43.45303745 1.78787211 43.45303745 3 48 C-4.59 48 -12.18 48 -20 48 C-20 45.69 -20 43.38 -20 41 C-21.98 40.67 -23.96 40.34 -26 40 C-27.70675364 42.96861491 -28.23580177 45.03648378 -28.16015625 48.44921875 C-28.14919922 49.29806641 -28.13824219 50.14691406 -28.12695312 51.02148438 C-28.10568359 51.90126953 -28.08441406 52.78105469 -28.0625 53.6875 C-27.94330154 59.58120187 -28.00887514 65.25962561 -28.82177734 71.10693359 C-29.05185251 73.55077305 -28.64259069 75.64383413 -28 78 C-28 78.66 -28 79.32 -28 80 C-28.495 79.814375 -28.99 79.62875 -29.5 79.4375 C-31.96031911 79.00694416 -33.5566647 79.13988155 -36 79.5 C-38.94792063 79.9344883 -41.1483803 80.06935739 -44 79 C-44 77 -44 75 -44 73 C-39.72885032 71.835141 -36.33580455 72.31056111 -32 73 C-32.00222061 72.34124878 -32.00444122 71.68249756 -32.00672913 71.00378418 C-32.02891436 64.12524968 -32.04396175 57.2467254 -32.05493164 50.36816406 C-32.0599492 47.80370674 -32.06676472 45.23925225 -32.07543945 42.67480469 C-32.08761803 38.98111263 -32.0932542 35.28745853 -32.09765625 31.59375 C-32.10281754 30.4538562 -32.10797882 29.3139624 -32.11329651 28.13952637 C-32.11370284 22.32665341 -31.88353309 16.74755089 -31 11 C-33.97 11 -36.94 11 -40 11 C-40 10.67 -40 10.34 -40 10 C-36.7 10 -33.4 10 -30 10 C-29.97311662 13.29172069 -29.9532179 16.58322354 -29.9375 19.875 C-29.92912109 20.81214844 -29.92074219 21.74929687 -29.91210938 22.71484375 C-29.90888672 23.61074219 -29.90566406 24.50664063 -29.90234375 25.4296875 C-29.89710693 26.25710449 -29.89187012 27.08452148 -29.88647461 27.93701172 C-30 30 -30 30 -31 32 C-30.34 32 -29.68 32 -29 32 C-28.835 32.598125 -28.67 33.19625 -28.5 33.8125 C-26.54319937 36.66616758 -24.34448537 37.16219184 -21.140625 38.2109375 C-19.05234718 38.98070414 -17.42239199 39.91693932 -15.5625 41.125 C-12.77970947 42.81645825 -10.51198768 43.32769425 -7.27734375 43.6171875 C-6.47417725 43.69308105 -5.67101074 43.76897461 -4.84350586 43.84716797 C-4.23514893 43.89760254 -3.62679199 43.94803711 -3 44 C-3.00523682 42.92516357 -3.01047363 41.85032715 -3.01586914 40.74291992 C-3.03396401 36.75660026 -3.04544846 32.77028424 -3.05493164 28.78393555 C-3.05996158 27.0583434 -3.06678626 25.33275552 -3.07543945 23.60717773 C-3.08756361 21.1274307 -3.09324169 18.64774 -3.09765625 16.16796875 C-3.10539818 15.01001045 -3.10539818 15.01001045 -3.11329651 13.82865906 C-3.11363318 10.6169772 -3.02326578 8.06979734 -2 5 C-2 4.01 -2 3.02 -2 2 C-1.34 2 -0.68 2 0 2 C0 1.34 0 0.68 0 0 Z " fill="#0747CB" transform="translate(124,88)"/>
<path d="M0 0 C1.32 0 2.64 0 4 0 C4 0.99 4 1.98 4 3 C4.61488281 2.98839844 5.22976562 2.97679688 5.86328125 2.96484375 C6.67152344 2.95582031 7.47976562 2.94679688 8.3125 2.9375 C9.51326172 2.92009766 9.51326172 2.92009766 10.73828125 2.90234375 C13 3 13 3 16 4 C16.33 4.99 16.66 5.98 17 7 C17.66 6.34 18.32 5.68 19 5 C19 5.66 19 6.32 19 7 C21.97 7.33 24.94 7.66 28 8 C28 8.99 28 9.98 28 11 C28.5775 11.0825 29.155 11.165 29.75 11.25 C32.70520475 12.23506825 34.06482323 13.58102904 36 16 C36 17.32 36 18.64 36 20 C36.99 20 37.98 20 39 20 C39 26.6 39 33.2 39 40 C23.71458552 37.81636936 23.71458552 37.81636936 18.6171875 31.20703125 C13.07651567 23.02266743 13.8705486 14.56501993 14 5 C12.95199219 5.02320312 11.90398438 5.04640625 10.82421875 5.0703125 C9.44531963 5.08907303 8.0664128 5.10727293 6.6875 5.125 C5.65206055 5.15013672 5.65206055 5.15013672 4.59570312 5.17578125 C0.82864604 5.21217794 -0.78431704 5.14378864 -4 3 C-3.34 2.67 -2.68 2.34 -2 2 C-1.01 2.33 -0.02 2.66 1 3 C0.67 2.01 0.34 1.02 0 0 Z " fill="#F6F8FB" transform="translate(52,120)"/>
<path d="M0 0 C4.48401485 -0.07427649 8.96770174 -0.12866111 13.45214844 -0.16479492 C14.9769515 -0.17986151 16.50171136 -0.20031876 18.02636719 -0.22631836 C20.22081166 -0.26279706 22.41468216 -0.27974714 24.609375 -0.29296875 C25.92905273 -0.3086792 27.24873047 -0.32438965 28.60839844 -0.34057617 C32.29574576 0.02969805 33.43603985 0.41295042 36 3 C36.48101807 5.56266785 36.48101807 5.56266785 36.45410156 8.66479492 C36.45379944 9.82577194 36.45349731 10.98674896 36.45318604 12.1829071 C36.43254089 13.43610245 36.41189575 14.68929779 36.390625 15.98046875 C36.38496521 17.26359451 36.37930542 18.54672028 36.37347412 19.86872864 C36.35821488 23.27700045 36.31893221 26.68458839 36.2746582 30.09259033 C36.23371078 33.5713984 36.21546434 37.05031718 36.1953125 40.52929688 C36.15243703 47.35314518 36.0841831 54.17653975 36 61 C31.43961691 61.08594362 28.14202082 61.00825252 24 59 C28.41830002 57.23267999 29.6960307 58.4845802 35 60 C35 53.4 35 46.8 35 40 C34.01 40 33.02 40 32 40 C31.34 37.03 30.68 34.06 30 31 C29.34 31 28.68 31 28 31 C27.505 28.525 27.505 28.525 27 26 C25.63875 26.0309375 25.63875 26.0309375 24.25 26.0625 C21 25 21 25 19.81640625 23.2109375 C18.7679593 20.83663352 17.86556391 18.44666065 17 16 C16.69964844 15.26265625 16.39929688 14.5253125 16.08984375 13.765625 C14.67494293 10.26456809 14 7.82183529 14 4 C12.02 4 10.04 4 8 4 C8 3.01 8 2.02 8 1 C5.36 1 2.72 1 0 1 C0 0.67 0 0.34 0 0 Z " fill="#ADC3EF" transform="translate(56,100)"/>
<path d="M0 0 C7.51037714 -0.06949335 15.02072096 -0.12280778 22.53134632 -0.15543652 C26.01881576 -0.17109635 29.50606532 -0.1923398 32.9934082 -0.22631836 C37.00213743 -0.2651328 41.01063548 -0.2797065 45.01953125 -0.29296875 C46.27272659 -0.30845261 47.52592194 -0.32393646 48.8170929 -0.33988953 C50.55855843 -0.34022942 50.55855843 -0.34022942 52.33520508 -0.34057617 C53.35890701 -0.34723801 54.38260895 -0.35389984 55.43733215 -0.36076355 C58 0 58 0 59.83276367 1.16723633 C61.47273415 3.74227468 61.36037839 5.62185429 61.34057617 8.66479492 C61.34023628 10.40626045 61.34023628 10.40626045 61.33988953 12.1829071 C61.32440567 13.43610245 61.30892181 14.68929779 61.29296875 15.98046875 C61.28872391 17.26359451 61.28447906 18.54672028 61.28010559 19.86872864 C61.26866162 23.27686138 61.23919896 26.6846094 61.20599365 30.09259033 C61.17528272 33.57143957 61.16159811 37.05035109 61.14648438 40.52929688 C61.11432835 47.35302243 61.06313776 54.17649274 61 61 C56.18239559 61.098772 53.2065804 61.05020332 49.0625 58.5 C48.29035156 58.0359375 47.51820313 57.571875 46.72265625 57.09375 C46.15417969 56.7328125 45.58570313 56.371875 45 56 C47.49064888 55.31292445 49.37886292 55 52 55 C53.98 54.505 53.98 54.505 56 54 C56 45.75 56 37.5 56 29 C56.33 29 56.66 29 57 29 C57 38.57 57 48.14 57 58 C57.99 58.495 57.99 58.495 59 59 C58.67 41.18 58.34 23.36 58 5 C55.58225419 3.79112709 54.06668936 3.87940657 51.36669922 3.88647461 C50.40585419 3.88655014 49.44500916 3.88662567 48.45504761 3.88670349 C46.89561935 3.89444542 46.89561935 3.89444542 45.3046875 3.90234375 C44.24210724 3.9037587 43.17952698 3.90517365 42.08474731 3.90663147 C38.68146991 3.91224166 35.27825762 3.92479591 31.875 3.9375 C29.57161553 3.94251369 27.26823003 3.94707682 24.96484375 3.95117188 C19.30987351 3.9622144 13.65494141 3.97896248 8 4 C6.59765047 9.17533757 6.77312237 13.78577005 8 19 C3.9771919 15.30336553 0.20722027 11.68328583 -0.1159668 5.9387207 C-0.0773112 3.95914714 -0.0386556 1.97957357 0 0 Z " fill="#E7ECF8" transform="translate(88,43)"/>
<path d="M0 0 C4.52065428 -0.049377 9.04115217 -0.08570823 13.56201172 -0.10986328 C15.10045098 -0.11993118 16.63887107 -0.13358646 18.17724609 -0.15087891 C20.38644133 -0.17509317 22.59538395 -0.18647491 24.8046875 -0.1953125 C25.49432587 -0.20563507 26.18396423 -0.21595764 26.89450073 -0.22659302 C28.59800906 -0.22699478 30.30085943 -0.12191026 32 0 C34 2 34 2 34.22705078 5.53173828 C34.22673363 7.04463331 34.21540633 8.55755088 34.1953125 10.0703125 C34.1924826 10.86654022 34.18965271 11.66276794 34.18673706 12.48312378 C34.1755264 15.03056763 34.15042062 17.57766211 34.125 20.125 C34.11497133 21.85025535 34.10584528 23.57551619 34.09765625 25.30078125 C34.07558422 29.53398914 34.04104867 33.7669353 34 38 C33.67 38 33.34 38 33 38 C32.34 34.04 31.68 30.08 31 26 C29.68 26.33 28.36 26.66 27 27 C25.71682108 23.15046324 25.93356363 20.05261865 26 16 C24.35 16 22.7 16 21 16 C20.51891725 14.58398286 20.04021859 13.16715563 19.5625 11.75 C19.29566406 10.96109375 19.02882813 10.1721875 18.75390625 9.359375 C16.83030303 3.33939394 16.83030303 3.33939394 18 1 C17.34 1 16.68 1 16 1 C16 1.99 16 2.98 16 4 C11 3 11 3 8.5625 2.5 C5.7164429 1.94467179 2.8619309 1.46589573 0 1 C0 0.67 0 0.34 0 0 Z M12 1 C13 3 13 3 13 3 Z " fill="#88AFF0" transform="translate(86,72)"/>
<path d="M0 0 C0.44988281 0.34571045 0.89976563 0.6914209 1.36328125 1.04760742 C7.1237154 5.09737156 12.07258204 5.91388991 19 6.3125 C22.3 6.539375 25.6 6.76625 29 7 C29.33 14.26 29.66 21.52 30 29 C29.34 29 28.68 29 28 29 C28.185625 29.804375 28.37125 30.60875 28.5625 31.4375 C28.7790625 32.7059375 28.7790625 32.7059375 29 34 C28.67 34.33 28.34 34.66 28 35 C27.83996512 37.66426685 27.74057111 40.30560428 27.68359375 42.97265625 C27.6524221 44.16912025 27.6524221 44.16912025 27.62062073 45.38975525 C27.55503842 47.94724611 27.49620033 50.5048428 27.4375 53.0625 C27.39432301 54.79232882 27.35070899 56.52214679 27.30664062 58.25195312 C27.19934828 62.5011926 27.09810574 66.7505389 27 71 C26.67 71 26.34 71 26 71 C25.98969254 70.27559219 25.97938507 69.55118439 25.96876526 68.80482483 C25.87095232 61.99148098 25.76846141 55.178222 25.66066074 48.36502934 C25.60540045 44.86195645 25.55197566 41.35887527 25.50268555 37.85571289 C25.44599332 33.83209856 25.38142599 29.80864469 25.31640625 25.78515625 C25.29969376 24.52163834 25.28298126 23.25812042 25.26576233 21.95631409 C25.2358445 20.21462196 25.2358445 20.21462196 25.20532227 18.43774414 C25.18200584 16.8955294 25.18200584 16.8955294 25.15821838 15.32215881 C25.25828129 13.03914647 25.25828129 13.03914647 24 12 C22.12903889 11.87655973 20.25349072 11.82207606 18.37866211 11.79467773 C17.17749252 11.77473251 15.97632294 11.75478729 14.73875427 11.73423767 C13.4314888 11.71752518 12.12422333 11.70081268 10.77734375 11.68359375 C9.43355153 11.66303042 8.08976588 11.64203412 6.74598694 11.62062073 C3.20325013 11.56533581 -0.33954567 11.51595502 -3.88238525 11.46777344 C-7.4952115 11.41760513 -11.10795172 11.36189475 -14.72070312 11.30664062 C-21.81372747 11.19898063 -28.90682888 11.0975532 -36 11 C-36 13.64 -36 16.28 -36 19 C-36.33 19 -36.66 19 -37 19 C-37.33 15.37 -37.66 11.74 -38 8 C-34.57567939 6.8585598 -33.46208098 7.29201979 -30 8 C-27.50500229 8.08080894 -25.00800494 8.10760161 -22.51171875 8.09765625 C-21.4569207 8.09553383 -21.4569207 8.09553383 -20.3808136 8.09336853 C-18.14966456 8.08780109 -15.91861836 8.07525475 -13.6875 8.0625 C-12.16862125 8.05748079 -10.64974091 8.05291862 -9.13085938 8.04882812 C-5.42053988 8.03784236 -1.71027999 8.02060034 2 8 C2 7.01 2 6.02 2 5 C1.34 4.67 0.68 4.34 0 4 C0 2.68 0 1.36 0 0 Z " fill="#1A4BD6" transform="translate(94,61)"/>
<path d="M0 0 C3.99998437 -0.02927916 7.99994076 -0.04689219 12 -0.0625 C13.12535156 -0.07087891 14.25070313 -0.07925781 15.41015625 -0.08789062 C21.37584397 -0.10533416 27.10287573 0.08218777 33 1 C33 1.99 33 2.98 33 4 C34.98 4 36.96 4 39 4 C39.19335938 4.77085938 39.38671875 5.54171875 39.5859375 6.3359375 C39.97652344 7.84027344 39.97652344 7.84027344 40.375 9.375 C40.63023438 10.37273437 40.88546875 11.37046875 41.1484375 12.3984375 C41.82404319 15.12541015 41.82404319 15.12541015 44 17 C44.3403125 18.7325 44.3403125 18.7325 44.6875 20.5 C45.120625 21.655 45.55375 22.81 46 24 C49.51400668 25.54086322 49.51400668 25.54086322 53 26 C53 27.65 53 29.3 53 31 C53.66 31 54.32 31 55 31 C55.495 33.475 55.495 33.475 56 36 C55.401875 35.360625 54.80375 34.72125 54.1875 34.0625 C52.09189663 31.79689611 52.09189663 31.79689611 49 31 C49 30.01 49 29.02 49 28 C47.68 28 46.36 28 45 28 C45 27.01 45 26.02 45 25 C44.01 25 43.02 25 42 25 C40.24609375 23.3203125 40.24609375 23.3203125 38.4375 21.125 C37.83808594 20.40570313 37.23867187 19.68640625 36.62109375 18.9453125 C36.08613281 18.30335937 35.55117187 17.66140625 35 17 C34.34 16.34 33.68 15.68 33 15 C33 14.01 33 13.02 33 12 C31.68 12 30.36 12 29 12 C28.34 10.35 27.68 8.7 27 7 C26.34 7 25.68 7 25 7 C25 6.01 25 5.02 25 4 C24.01 4 23.02 4 22 4 C21.67 3.34 21.34 2.68 21 2 C14.07 1.67 7.14 1.34 0 1 C0 0.67 0 0.34 0 0 Z " fill="#BACEF4" transform="translate(31,100)"/>
<path d="M0 0 C4.48401485 -0.07427649 8.96770174 -0.12866111 13.45214844 -0.16479492 C14.9769515 -0.17986151 16.50171136 -0.20031876 18.02636719 -0.22631836 C20.22081166 -0.26279706 22.41468216 -0.27974714 24.609375 -0.29296875 C25.92905273 -0.3086792 27.24873047 -0.32438965 28.60839844 -0.34057617 C32 0 32 0 34.4375 1.04882812 C36.79248019 3.98960963 36.49579477 6.91345048 36.390625 10.51171875 C36.38496521 11.23994339 36.37930542 11.96816803 36.37347412 12.71846008 C36.35110029 15.04214498 36.30090669 17.36428207 36.25 19.6875 C36.22993609 21.26364959 36.21168512 22.83982337 36.1953125 24.41601562 C36.15123283 28.27793924 36.08220225 32.1387073 36 36 C35.67 36 35.34 36 35 36 C35 30.72 35 25.44 35 20 C33.35 20 31.7 20 30 20 C30 19.34 30 18.68 30 18 C28.68 17.34 27.36 16.68 26 16 C26 14.68 26 13.36 26 12 C25.34 12 24.68 12 24 12 C23.34 9.36 22.68 6.72 22 4 C21.01 4.33 20.02 4.66 19 5 C18.67 4.01 18.34 3.02 18 2 C12.06 1.67 6.12 1.34 0 1 C0 0.67 0 0.34 0 0 Z " fill="#6694E9" transform="translate(56,100)"/>
<path d="M0 0 C2.31 1.32 4.62 2.64 7 4 C7 4.66 7 5.32 7 6 C18.385 6.99 18.385 6.99 30 8 C30.061875 10.619375 30.12375 13.23875 30.1875 15.9375 C30.49281008 23.04406504 31.63437477 28.20636652 36 34 C36.66 34.99 37.32 35.98 38 37 C36.68 37.33 35.36 37.66 34 38 C34 37.34 34 36.68 34 36 C32.515 35.505 32.515 35.505 31 35 C30.3125 32.9375 30.3125 32.9375 30 31 C29.34 31 28.68 31 28 31 C28.33 23.74 28.66 16.48 29 9 C27.79438816 9.98267859 27.79438816 9.98267859 27.90234375 11.84765625 C27.91394531 12.57855469 27.92554688 13.30945313 27.9375 14.0625 C27.958125 15.361875 27.97875 16.66125 28 18 C27.731875 17.38125 27.46375 16.7625 27.1875 16.125 C26.04443152 13.7004767 26.04443152 13.7004767 23 12 C20.39356398 11.6714292 20.39356398 11.6714292 17.42700195 11.68115234 C16.28604568 11.66128265 15.14508942 11.64141296 13.96955872 11.62094116 C12.73823715 11.60938995 11.50691559 11.59783875 10.23828125 11.5859375 C8.97735153 11.56657135 7.71642181 11.5472052 6.4172821 11.5272522 C3.06852419 11.47756263 -0.28012319 11.43630565 -3.62902832 11.39910889 C-7.04770856 11.35906919 -10.46622161 11.30797674 -13.88476562 11.2578125 C-20.58974553 11.16167426 -27.29478176 11.07767028 -34 11 C-33.34 14.96 -32.68 18.92 -32 23 C-32.99 22.67 -33.98 22.34 -35 22 C-35 18.04 -35 14.08 -35 10 C-21.14 9.67 -7.28 9.34 7 9 C4.69 7.68 2.38 6.36 0 5 C0 3.35 0 1.7 0 0 Z " fill="#074DD9" transform="translate(65,89)"/>
<path d="M0 0 C0.99 0.66 1.98 1.32 3 2 C3.36076355 4.44241333 3.36076355 4.44241333 3.34057617 7.55126953 C3.34034958 8.71232208 3.34012299 9.87337463 3.33988953 11.0696106 C3.32440567 12.32796722 3.30892181 13.58632385 3.29296875 14.8828125 C3.28872391 16.16735321 3.28447906 17.45189392 3.28010559 18.77536011 C3.2686468 22.19172641 3.23917143 25.60771056 3.20599365 29.02392578 C3.17531462 32.50938751 3.16160494 35.99491094 3.14648438 39.48046875 C3.11430221 46.32046957 3.06309376 53.16021644 3 60 C-1.81760441 60.098772 -4.7934196 60.05020332 -8.9375 57.5 C-9.70964844 57.0359375 -10.48179687 56.571875 -11.27734375 56.09375 C-11.84582031 55.7328125 -12.41429687 55.371875 -13 55 C-10.50935112 54.31292445 -8.62113708 54 -6 54 C-4.02 53.505 -4.02 53.505 -2 53 C-2 44.75 -2 36.5 -2 28 C-1.67 28 -1.34 28 -1 28 C-1 37.57 -1 47.14 -1 57 C-0.34 57.33 0.32 57.66 1 58 C0.505 29.29 0.505 29.29 0 0 Z " fill="#BAC7ED" transform="translate(146,44)"/>
<path d="M0 0 C4.29165198 -0.02935775 8.58327764 -0.04691802 12.875 -0.0625 C14.07898438 -0.07087891 15.28296875 -0.07925781 16.5234375 -0.08789062 C32.09198619 -0.13019646 32.09198619 -0.13019646 37 1 C38.48619895 3.97239791 38.13177009 6.69619578 38.125 10 C38.12886719 11.8871875 38.12886719 11.8871875 38.1328125 13.8125 C38 17 38 17 37 19 C36.01 18.67 35.02 18.34 34 18 C34 17.34 34 16.68 34 16 C33.01 16 32.02 16 31 16 C31 14.02 31 12.04 31 10 C30.34 10 29.68 10 29 10 C29 9.34 29 8.68 29 8 C28.01 7.67 27.02 7.34 26 7 C26 6.01 26 5.02 26 4 C25.01 4 24.02 4 23 4 C23 3.01 23 2.02 23 1 C22.10692139 1.05329468 22.10692139 1.05329468 21.19580078 1.10766602 C18.50583226 1.26498794 15.81546083 1.41384562 13.125 1.5625 C12.18785156 1.61857422 11.25070313 1.67464844 10.28515625 1.73242188 C9.38925781 1.78076172 8.49335937 1.82910156 7.5703125 1.87890625 C6.74289551 1.9260376 5.91547852 1.97316895 5.06298828 2.02172852 C3 2 3 2 1 1 C0.67 2.32 0.34 3.64 0 5 C0 3.35 0 1.7 0 0 Z " fill="#D2E0F8" transform="translate(59,72)"/>
<path d="M0 0 C7.41312741 -0.37065637 7.41312741 -0.37065637 10.375 1.5 C10.91125 1.995 11.4475 2.49 12 3 C12.66 3 13.32 3 14 3 C14.66 5.64 15.32 8.28 16 11 C16.66 11 17.32 11 18 11 C18.28875 11.804375 18.5775 12.60875 18.875 13.4375 C19.73262568 16.1326468 19.73262568 16.1326468 22 17 C22 17.66 22 18.32 22 19 C23.65 19 25.3 19 27 19 C27 21.64 27 24.28 27 27 C26.34 27 25.68 27 25 27 C24.67 26.01 24.34 25.02 24 24 C23.01 24 22.02 24 21 24 C21 23.01 21 22.02 21 21 C20.360625 20.731875 19.72125 20.46375 19.0625 20.1875 C17 19 17 19 16 16 C15.34 16 14.68 16 14 16 C14 15.01 14 14.02 14 13 C11.69 12.34 9.38 11.68 7 11 C6.67 8.36 6.34 5.72 6 3 C4.02 3 2.04 3 0 3 C0 2.01 0 1.02 0 0 Z " fill="#92B4ED" transform="translate(64,101)"/>
<path d="M0 0 C1.64880409 0.02997826 1.64880409 0.02997826 3.33091736 0.06056213 C4.57212845 0.08065842 5.81333954 0.1007547 7.09216309 0.12145996 C8.45682486 0.14866042 9.82148445 0.1759712 11.18614197 0.2033844 C12.57476041 0.22767578 13.96338674 0.25151982 15.35202026 0.27493286 C19.01326971 0.3378717 22.67438005 0.40691031 26.335495 0.47718811 C30.06884914 0.54778333 33.80230219 0.61265294 37.53575134 0.67799377 C44.86593882 0.80713233 52.19598885 0.94271024 59.52598572 1.08229065 C60.02098572 2.07229065 60.02098572 2.07229065 60.52598572 3.08229065 C41.71598572 3.08229065 22.90598572 3.08229065 3.52598572 3.08229065 C3.52598572 4.73229065 3.52598572 6.38229065 3.52598572 8.08229065 C0.85931905 8.08229065 -1.80734762 8.08229065 -4.47401428 8.08229065 C-3.46000651 0.11508672 -3.46000651 0.11508672 0 0 Z " fill="#1F62F6" transform="translate(84.47401428222656,39.91770935058594)"/>
<path d="M0 0 C0.33 0 0.66 0 1 0 C1 13.2 1 26.4 1 40 C-4.94 40 -10.88 40 -17 40 C-17 37.69 -17 35.38 -17 33 C-19.31 32.34 -21.62 31.68 -24 31 C-24 30.34 -24 29.68 -24 29 C-18.64221156 29.33486178 -15.63474726 30.56423081 -11.3828125 33.84375 C-8.08090645 35.61012745 -8.08090645 35.61012745 0 36 C0 24.12 0 12.24 0 0 Z " fill="#0E40C1" transform="translate(121,96)"/>
<path d="M0 0 C2.52588702 2.36292656 3.88820837 3.66462511 5 7 C6.95197603 8.57221907 6.95197603 8.57221907 9.3125 10 C12.32584589 11.91260301 15.13260099 13.84945074 18 16 C12.06 16 6.12 16 0 16 C-0.66 11.38 -1.32 6.76 -2 2 C-1.34 2 -0.68 2 0 2 C0 1.34 0 0.68 0 0 Z " fill="#0E46CA" transform="translate(124,88)"/>
<path d="M0 0 C0.98097656 0.48082031 1.96195313 0.96164063 2.97265625 1.45703125 C7.1259989 3.23703524 10.96153143 3.54417072 15.4375 3.6875 C16.16904297 3.72166016 16.90058594 3.75582031 17.65429688 3.79101562 C19.43569562 3.87251753 21.21781749 3.93795523 23 4 C23.10957031 5.31355469 23.21914062 6.62710938 23.33203125 7.98046875 C23.49153145 9.71620624 23.65172413 11.4518802 23.8125 13.1875 C23.88275391 14.05181641 23.95300781 14.91613281 24.02539062 15.80664062 C24.49312129 20.68974878 25.19356198 23.85869461 28 28 C27.67 28.66 27.34 29.32 27 30 C22.125 29.125 22.125 29.125 21 28 C20.875 25.5 20.875 25.5 21 23 C21.33 22.67 21.66 22.34 22 22 C22.07325168 19.13732433 22.09238205 16.299281 22.0625 13.4375 C22.05798828 12.63119141 22.05347656 11.82488281 22.04882812 10.99414062 C22.03700518 8.99606244 22.01906914 6.99802217 22 5 C21.13048706 5.0611499 21.13048706 5.0611499 20.2434082 5.12353516 C17.6004259 5.3026398 14.95664272 5.46397262 12.3125 5.625 C11.40048828 5.68945312 10.48847656 5.75390625 9.54882812 5.8203125 C1.18266684 6.30707097 1.18266684 6.30707097 -3 4 C-3 3.34 -3 2.68 -3 2 C-2.01 2 -1.02 2 0 2 C0 1.34 0 0.68 0 0 Z " fill="#2858C9" transform="translate(43,122)"/>
<path d="M0 0 C2.33541136 0.31844835 4.66836275 0.65500248 7 1 C9.57393442 1.13022383 12.15002053 1.2218521 14.7265625 1.28125 C15.43726898 1.29965942 16.14797546 1.31806885 16.88021851 1.33703613 C19.88940948 1.41492312 22.89879415 1.48338237 25.90820312 1.55224609 C28.11859277 1.604216 30.32880842 1.66134325 32.5390625 1.71875 C33.85084473 1.74904297 35.16262695 1.77933594 36.51416016 1.81054688 C39.46441688 1.97089141 42.13280707 2.31985916 45 3 C45 3.33 45 3.66 45 4 C30.48 4 15.96 4 1 4 C1 6.64 1 9.28 1 12 C0.67 12 0.34 12 0 12 C-0.19401633 10.18818595 -0.38004375 8.37551468 -0.5625 6.5625 C-0.66691406 5.55316406 -0.77132812 4.54382813 -0.87890625 3.50390625 C-0.91886719 2.67761719 -0.95882812 1.85132812 -1 1 C-0.67 0.67 -0.34 0.34 0 0 Z " fill="#2160ED" transform="translate(57,68)"/>
<path d="M0 0 C0.33 0.66 0.66 1.32 1 2 C2.98 2 4.96 2 7 2 C7.99862699 9.36487404 8.10331031 16.57313685 8 24 C7.67 24 7.34 24 7 24 C6.34 20.04 5.68 16.08 5 12 C3.68 12.33 2.36 12.66 1 13 C-0.00496852 9.98509443 -0.10335303 7.95818308 -0.0625 4.8125 C-0.05347656 3.91144531 -0.04445313 3.01039062 -0.03515625 2.08203125 C-0.02355469 1.39496094 -0.01195313 0.70789063 0 0 Z " fill="#AAC2F3" transform="translate(112,86)"/>
<path d="M0 0 C5.94 0.33 11.88 0.66 18 1 C18.061875 3.619375 18.12375 6.23875 18.1875 8.9375 C18.49281008 16.04406504 19.63437477 21.20636652 24 27 C24.66 27.99 25.32 28.98 26 30 C24.68 30.33 23.36 30.66 22 31 C22 30.34 22 29.68 22 29 C21.01 28.67 20.02 28.34 19 28 C18.3125 25.9375 18.3125 25.9375 18 24 C17.34 24 16.68 24 16 24 C16.33 16.74 16.66 9.48 17 2 C11.72 2 6.44 2 1 2 C0.67 1.34 0.34 0.68 0 0 Z " fill="#3D61CE" transform="translate(77,96)"/>
<path d="M0 0 C1.98 0 3.96 0 6 0 C7.48619895 2.97239791 7.13177009 5.69619578 7.125 9 C7.12757812 10.258125 7.13015625 11.51625 7.1328125 12.8125 C7 16 7 16 6 18 C5.01 17.67 4.02 17.34 3 17 C1.48484483 13.96968967 1.35175359 10.7013029 0.9375 7.375 C0.84662109 6.66859375 0.75574219 5.9621875 0.66210938 5.234375 C0.43816881 3.4899959 0.21866182 1.74504866 0 0 Z " fill="#C7D9F8" transform="translate(90,73)"/>
<path d="M0 0 C3.375 -0.125 3.375 -0.125 7 0 C9 2 9 2 9.1953125 4.8203125 C9.16050781 6.45613281 9.16050781 6.45613281 9.125 8.125 C9.10695313 9.22070312 9.08890625 10.31640625 9.0703125 11.4453125 C9.04710938 12.28835937 9.02390625 13.13140625 9 14 C6.48916886 12.74458443 6.12874554 11.49936512 5 9 C4.01 9 3.02 9 2 9 C1.34 6.03 0.68 3.06 0 0 Z " fill="#6294EE" transform="translate(111,72)"/>
<path d="M0 0 C6.27 0.33 12.54 0.66 19 1 C19.33 8.26 19.66 15.52 20 23 C19.34 23 18.68 23 18 23 C18.33 24.65 18.66 26.3 19 28 C18.34 27.67 17.68 27.34 17 27 C16.9728955 23.95827281 16.95311036 20.91679003 16.9375 17.875 C16.92912109 17.0190625 16.92074219 16.163125 16.91210938 15.28125 C16.89461694 10.73321589 17.06807642 6.47616836 18 2 C16.86820313 2.02320312 15.73640625 2.04640625 14.5703125 2.0703125 C13.08854825 2.08906901 11.60677688 2.10726934 10.125 2.125 C9.37863281 2.14175781 8.63226563 2.15851563 7.86328125 2.17578125 C5.90805539 2.1933959 3.95257979 2.10320189 2 2 C1.34 1.34 0.68 0.68 0 0 Z " fill="#3E66D8" transform="translate(104,67)"/>
<path d="M0 0 C13.86 0 27.72 0 42 0 C42 0.33 42 0.66 42 1 C28.47 1 14.94 1 1 1 C1.66 4.96 2.32 8.92 3 13 C2.01 12.67 1.02 12.34 0 12 C0 8.04 0 4.08 0 0 Z " fill="#154CDA" transform="translate(30,99)"/>
<path d="M0 0 C0.33 0 0.66 0 1 0 C1 9.57 1 19.14 1 29 C-6 30 -6 30 -8.9375 28.5625 C-9.618125 28.046875 -10.29875 27.53125 -11 27 C-8.50935112 26.31292445 -6.62113708 26 -4 26 C-2.68 25.67 -1.36 25.34 0 25 C0 16.75 0 8.5 0 0 Z " fill="#F1F6F4" transform="translate(144,72)"/>
<path d="M0 0 C2.64 0 5.28 0 8 0 C8 1.32 8 2.64 8 4 C8.99 4.33 9.98 4.66 11 5 C11 6.98 11 8.96 11 11 C9.68 11 8.36 11 7 11 C6.67 8.36 6.34 5.72 6 3 C4.02 3 2.04 3 0 3 C0 2.01 0 1.02 0 0 Z " fill="#8DB4F2" transform="translate(64,101)"/>
<path d="M0 0 C2.60018816 3.90028225 2.15085514 7.47434569 2 12 C1.01 12 0.02 12 -1 12 C-3.60250805 8.62637846 -4.36265043 6.23092172 -4 2 C-2.68 1.34 -1.36 0.68 0 0 Z " fill="#C4D5F7" transform="translate(117,97)"/>
<path d="M0 0 C1.55693206 2.33539809 2.90200646 4.57968756 4.1875 7.0625 C4.55230469 7.75472656 4.91710937 8.44695312 5.29296875 9.16015625 C5.52628906 9.76730469 5.75960937 10.37445313 6 11 C5.67 11.66 5.34 12.32 5 13 C0.125 12.125 0.125 12.125 -1 11 C-1.125 8.5 -1.125 8.5 -1 6 C-0.67 5.67 -0.34 5.34 0 5 C0.04063832 3.33382885 0.042721 1.66611905 0 0 Z " fill="#0E4EC9" transform="translate(65,139)"/>
<path d="M0 0 C1.32 0 2.64 0 4 0 C4.66 0.66 5.32 1.32 6 2 C6.66 2 7.32 2 8 2 C8.66 4.64 9.32 7.28 10 10 C8.35 10 6.7 10 5 10 C4.87625 9.030625 4.7525 8.06125 4.625 7.0625 C4.315625 5.5465625 4.315625 5.5465625 4 4 C3.34 3.67 2.68 3.34 2 3 C2 2.34 2 1.68 2 1 C1.34 0.67 0.68 0.34 0 0 Z " fill="#7DA9ED" transform="translate(70,102)"/>
<path d="M0 0 C0.33 0.66 0.66 1.32 1 2 C8.92 2 16.84 2 25 2 C25 2.33 25 2.66 25 3 C24.22809326 3.0093457 23.45618652 3.01869141 22.66088867 3.02832031 C19.16910418 3.08194706 15.67867069 3.16561017 12.1875 3.25 C10.97255859 3.26417969 9.75761719 3.27835937 8.50585938 3.29296875 C6.76079102 3.34130859 6.76079102 3.34130859 4.98046875 3.390625 C3.37014771 3.4220459 3.37014771 3.4220459 1.72729492 3.45410156 C-1.13870394 3.74930562 -1.13870394 3.74930562 -2.8737793 6.03808594 C-3.24543213 6.68551758 -3.61708496 7.33294922 -4 8 C-4.25 5.6875 -4.25 5.6875 -4 3 C-2 1.1875 -2 1.1875 0 0 Z " fill="#0454F2" transform="translate(31,96)"/>
<path d="M0 0 C0 2.97 0 5.94 0 9 C-0.33 9 -0.66 9 -1 9 C-1.66 7.02 -2.32 5.04 -3 3 C-8.28 2.67 -13.56 2.34 -19 2 C-19 1.67 -19 1.34 -19 1 C-12.62641289 0.03794912 -6.44070471 -0.10655578 0 0 Z " fill="#1059E0" transform="translate(121,70)"/>
<path d="M0 0 C3.465 1.98 3.465 1.98 7 4 C7 4.66 7 5.32 7 6 C8.98 6.66 10.96 7.32 13 8 C9.01727361 9.32757546 6.9189808 8.3296542 3 7 C2.01 6.34 1.02 5.68 0 5 C-0.1875 2.375 -0.1875 2.375 0 0 Z " fill="#0A45CC" transform="translate(65,89)"/>
<path d="M0 0 C0.33 0 0.66 0 1 0 C1 7.26 1 14.52 1 22 C-1.64 22 -4.28 22 -7 22 C-7.66 21.34 -8.32 20.68 -9 20 C-7.576875 20.061875 -7.576875 20.061875 -6.125 20.125 C-2.89755144 20.34973818 -2.89755144 20.34973818 -1 18 C-0.63168919 16.06742145 -0.63168919 16.06742145 -0.5859375 13.8671875 C-0.54726562 13.06152344 -0.50859375 12.25585938 -0.46875 11.42578125 C-0.42234375 10.16314453 -0.42234375 10.16314453 -0.375 8.875 C-0.31699219 7.60076172 -0.31699219 7.60076172 -0.2578125 6.30078125 C-0.16343506 4.20088316 -0.08062414 2.10047109 0 0 Z " fill="#CED6EC" transform="translate(119,110)"/>
<path d="M0 0 C0.99 0 1.98 0 3 0 C3 0.66 3 1.32 3 2 C3.99 2.33 4.98 2.66 6 3 C6 3.66 6 4.32 6 5 C6.66 5 7.32 5 8 5 C8 6.65 8 8.3 8 10 C4.20401451 8.50871999 2.28279601 6.34266559 0 3 C0 2.01 0 1.02 0 0 Z " fill="#CEDDF7" transform="translate(64,112)"/>
<path d="M0 0 C1.32 0.33 2.64 0.66 4 1 C4 2.65 4 4.3 4 6 C4.66 6 5.32 6 6 6 C6.33 7.65 6.66 9.3 7 11 C6.401875 10.360625 5.80375 9.72125 5.1875 9.0625 C3.09189663 6.79689611 3.09189663 6.79689611 0 6 C0 4.02 0 2.04 0 0 Z " fill="#C9D9F5" transform="translate(80,125)"/>
<path d="M0 0 C5.61 0 11.22 0 17 0 C16.67 1.32 16.34 2.64 16 4 C11 3 11 3 8.5625 2.5 C5.7164429 1.94467179 2.8619309 1.46589573 0 1 C0 0.67 0 0.34 0 0 Z M12 1 C13 3 13 3 13 3 Z " fill="#9BBCF4" transform="translate(86,72)"/>
<path d="M0 0 C3 0 3 0 5.125 1.625 C7.34914783 4.44225392 7.67895459 6.46850054 8 10 C3.97881358 7.93506643 1.98665002 6.07786057 0 2 C0 1.34 0 0.68 0 0 Z " fill="#E3E8F5" transform="translate(125,88)"/>
<path d="M0 0 C7.57142857 4.14285714 7.57142857 4.14285714 10 7 C8.72125 7.061875 7.4425 7.12375 6.125 7.1875 C5.40570313 7.22230469 4.68640625 7.25710937 3.9453125 7.29296875 C3.30335937 7.19628906 2.66140625 7.09960938 2 7 C0 4 0 4 0 0 Z " fill="#1445C0" transform="translate(72,153)"/>
<path d="M0 0 C1.32 0 2.64 0 4 0 C4 2.64 4 5.28 4 8 C2.68 8 1.36 8 0 8 C0 5.36 0 2.72 0 0 Z " fill="#99BBF2" transform="translate(115,88)"/>
<path d="M0 0 C2.60590285 1.30295142 2.96190955 2.2991275 4 5 C4.1953125 7.796875 4.1953125 7.796875 4.125 10.75 C4.10695313 11.73484375 4.08890625 12.7196875 4.0703125 13.734375 C4.03550781 14.85585937 4.03550781 14.85585937 4 16 C3.67 16 3.34 16 3 16 C3 13.03 3 10.06 3 7 C2.01 7.33 1.02 7.66 0 8 C0 5.36 0 2.72 0 0 Z " fill="#7EA6EE" transform="translate(116,81)"/>
<path d="M0 0 C2.375 0.25 2.375 0.25 5 1 C6.3125 3.0625 6.3125 3.0625 7 5 C7.99 5 8.98 5 10 5 C10 5.99 10 6.98 10 8 C8.35 7.67 6.7 7.34 5 7 C5 5.68 5 4.36 5 3 C4.34 3 3.68 3 3 3 C3 2.34 3 1.68 3 1 C2.01 0.67 1.02 0.34 0 0 Z " fill="#E0EAF8" transform="translate(66,120)"/>
<path d="M0 0 C3.3 1.98 6.6 3.96 10 6 C7.07175348 6.97608217 5.04386724 7.08226668 2 7 C2 6.34 2 5.68 2 5 C1.34 4.67 0.68 4.34 0 4 C0 2.68 0 1.36 0 0 Z " fill="#154CD5" transform="translate(94,61)"/>
<path d="M0 0 C1.32 1.65 2.64 3.3 4 5 C3.34 5 2.68 5 2 5 C1.67 5.99 1.34 6.98 1 8 C0.34 8 -0.32 8 -1 8 C-1.33 6.02 -1.66 4.04 -2 2 C-1.34 2 -0.68 2 0 2 C0 1.34 0 0.68 0 0 Z " fill="#174DCB" transform="translate(124,88)"/>
<path d="M0 0 C0.33 0.99 0.66 1.98 1 3 C1.66 2.67 2.32 2.34 3 2 C3 1.34 3 0.68 3 0 C3.66 0 4.32 0 5 0 C4.67 2.31 4.34 4.62 4 7 C3.01 7.33 2.02 7.66 1 8 C0.67 5.36 0.34 2.72 0 0 Z " fill="#6D9DF1" transform="translate(112,73)"/>
<path d="M0 0 C2.475 0.495 2.475 0.495 5 1 C5.33 2.65 5.66 4.3 6 6 C6.99 6 7.98 6 9 6 C9 6.99 9 7.98 9 9 C7.0625 8.3125 7.0625 8.3125 5 7 C4.25 4.375 4.25 4.375 4 2 C2.68 2 1.36 2 0 2 C0 1.34 0 0.68 0 0 Z " fill="#F9FAEF" transform="translate(63,83)"/>
<path d="M0 0 C0.99 0 1.98 0 3 0 C3 2.64 3 5.28 3 8 C2.01 8 1.02 8 0 8 C0 5.36 0 2.72 0 0 Z " fill="#CBDBF4" transform="translate(88,132)"/>
<path d="M0 0 C2.5 2.3125 2.5 2.3125 5 5 C5 5.99 5 6.98 5 8 C3.68 8 2.36 8 1 8 C0.67 5.36 0.34 2.72 0 0 Z " fill="#98B8F0" transform="translate(70,104)"/>
<path d="M0 0 C0.99 0.33 1.98 0.66 3 1 C2.67 1.99 2.34 2.98 2 4 C1.34 4 0.68 4 0 4 C0 2.68 0 1.36 0 0 Z M3 0 C7.62 0 12.24 0 17 0 C17 0.33 17 0.66 17 1 C12.38 1 7.76 1 3 1 C3 0.67 3 0.34 3 0 Z " fill="#F5FBFC" transform="translate(60,73)"/>
<path d="M0 0 C0.66 0 1.32 0 2 0 C2 0.66 2 1.32 2 2 C3.65 1.67 5.3 1.34 7 1 C6.67 2.65 6.34 4.3 6 6 C3.5625 5.25 3.5625 5.25 1 4 C0.1875 1.875 0.1875 1.875 0 0 Z " fill="#EDEFF6" transform="translate(75,152)"/>
<path d="M0 0 C1.65 0 3.3 0 5 0 C4.525625 0.78375 4.05125 1.5675 3.5625 2.375 C2.66101977 3.88948678 1.78820515 5.4235897 1 7 C0.34 7 -0.32 7 -1 7 C-0.67 4.69 -0.34 2.38 0 0 Z " fill="#F7FAF5" transform="translate(99,112)"/>
<path d="M0 0 C1.99097846 2.98646769 2.94124926 5.59687262 4 9 C2.68 9.33 1.36 9.66 0 10 C0 6.7 0 3.4 0 0 Z " fill="#295BE0" transform="translate(59,77)"/>
<path d="M0 0 C1.32 0 2.64 0 4 0 C4 1.65 4 3.3 4 5 C3.01 5 2.02 5 1 5 C0.34 3.68 -0.32 2.36 -1 1 C-0.67 0.67 -0.34 0.34 0 0 Z " fill="#D3E1F7" transform="translate(115,104)"/>
<path d="M0 0 C3 1 3 1 4.1875 3.375 C5 6 5 6 5 9 C3.02 6.69 1.04 4.38 -1 2 C-0.67 1.34 -0.34 0.68 0 0 Z " fill="#D4DCFA" transform="translate(64,84)"/>
<path d="M0 0 C3.465 1.98 3.465 1.98 7 4 C4 6 4 6 1.8125 5.625 C1.214375 5.41875 0.61625 5.2125 0 5 C0 3.35 0 1.7 0 0 Z " fill="#1953D1" transform="translate(65,89)"/>
<path d="M0 0 C-0.66 0 -1.32 0 -2 0 C-2 0.66 -2 1.32 -2 2 C-4.31 2 -6.62 2 -9 2 C-8 0 -8 0 -6.1875 -0.6875 C-3.81180233 -1.02688538 -2.26664171 -0.72856341 0 0 Z " fill="#083EB7" transform="translate(120,134)"/>
<path d="M0 0 C0.33 0 0.66 0 1 0 C1.66 3.96 2.32 7.92 3 12 C2.01 11.67 1.02 11.34 0 11 C0 7.37 0 3.74 0 0 Z " fill="#3964D2" transform="translate(30,100)"/>
</svg>
